# xmcd
#
# Track frame offsets:
#	150
#	5625
#	14430
#	19988
#	30120
#	39513
#	42830
#	52543
#	59368
#	67840
#	80953
#	86153
#	93033
#	103668
#	113278
#	121660
#	125165
#	132308
#	138463
#	153075
#	161910
#	173620
#	177738
#	184265
#	197243
#	209415
#	210400
#	218233
#	230925
#	236950
#	243665
#	251498
#	255898
#	267463
#	271218
#
# Disc length: 3752 seconds
#
# Revision: 1
# Processed by: cddbd v1.5.2PL0 Copyright (c) Steve Scherf et al.
# Submitted via: EZCDAudioConverter 1.3.4.1
#
DISCID=ee0ea623
DTITLE=Ronald Stein - Not Of This Earth!
DYEAR=1995
DGENRE=
TTITLE0=Main Title
TTITLE1=50 Ft. Rock (& Roll)
TTITLE2=Nancy And The Donkey
TTITLE3=Juke Box Jive
TTITLE4=Giant Footprint
TTITLE5=The Satellite - The 50 Ft. Woman - Giant Steps
TTITLE6=Nancy Got Her Man - Big Finish
TTITLE7=Prologue - The Secret Passage
TTITLE8=Main Title
TTITLE9=Meet Helaine
TTITLE10=Light In The Bedroom
TTITLE11=Helaine Melts - The End
TTITLE12=Main Title
TTITLE13=The Ceremony
TTITLE14=Floating Doll
TTITLE15=He Lost His Head
TTITLE16=Dementia Ultimo
TTITLE17=Main Title
TTITLE18=Flight From Fear
TTITLE19=The Eyes Have It
TTITLE20=Rabid Blood
TTITLE21=End Note
TTITLE22=Main Title - Is It Fish
TTITLE23=Crab Meet
TTITLE24=Crab Clause
TTITLE25=Finale - Cracked Crab
TTITLE26=Main Title
TTITLE27=Scared Papers
TTITLE28=Nick's Redemption - End Title
TTITLE29=Main Title
TTITLE30=Spider Orgy
TTITLE31=Spider Stravinsky
TTITLE32=Spider! Spider!
TTITLE33=Rehearsing With Ron And Lon
TTITLE34=Song From Spider Baby
EXTD=
EXTT0=
EXTT1=
EXTT2=
EXTT3=
EXTT4=
EXTT5=
EXTT6=
EXTT7=
EXTT8=
EXTT9=
EXTT10=
EXTT11=
EXTT12=
EXTT13=
EXTT14=
EXTT15=
EXTT16=
EXTT17=
EXTT18=
EXTT19=
EXTT20=
EXTT21=
EXTT22=
EXTT23=
EXTT24=
EXTT25=
EXTT26=
EXTT27=
EXTT28=
EXTT29=
EXTT30=
EXTT31=
EXTT32=
EXTT33=
EXTT34=
PLAYORDER=
